HIERARCHY
ROOT Hips
{
	OFFSET 0.000000 0.000000 0.000000
	CHANNELS 6 Xposition Yposition Zposition Zrotation Xrotation Yrotation
	JOINT Spine1
	{
		OFFSET 0.000000 -0.000023 138.847351
		CHANNELS 6 Xposition Yposition Zposition Zrotation Xrotation Yrotation
		JOINT Neck
		{
			OFFSET 0.000000 -0.000018 110.694000
			CHANNELS 6 Xposition Yposition Zposition Zrotation Xrotation Yrotation
			JOINT Head
			{
				OFFSET 0.000000 -9.081811 70.384003
				CHANNELS 6 Xposition Yposition Zposition Zrotation Xrotation Yrotation
				End Site
				{
					OFFSET 0.000000 -0.000014 90.817780
				}
			}
		}
		JOINT LeftShoulder
		{
			OFFSET 18.288349 2.400605 89.379486
			CHANNELS 6 Xposition Yposition Zposition Zrotation Xrotation Yrotation
			JOINT LeftArm
			{
				OFFSET 65.257996 0.000000 0.000000
				CHANNELS 6 Xposition Yposition Zposition Zrotation Xrotation Yrotation
				JOINT LeftForeArm
				{
					OFFSET 127.960495 0.000000 0.000000
					CHANNELS 6 Xposition Yposition Zposition Zrotation Xrotation Yrotation
					JOINT LeftHand
					{
						OFFSET 118.922485 0.000000 0.000000
						CHANNELS 6 Xposition Yposition Zposition Zrotation Xrotation Yrotation
						End Site
						{
							OFFSET 68.113342 0.000000 0.000000
						}
					}
				}
			}
		}
		JOINT RightShoulder
		{
			OFFSET -18.036051 2.400605 89.379486
			CHANNELS 6 Xposition Yposition Zposition Zrotation Xrotation Yrotation
			JOINT RightArm
			{
				OFFSET -65.257996 0.000000 0.000000
				CHANNELS 6 Xposition Yposition Zposition Zrotation Xrotation Yrotation
				JOINT RightForeArm
				{
					OFFSET -127.960503 0.000000 0.000000
					CHANNELS 6 Xposition Yposition Zposition Zrotation Xrotation Yrotation
					JOINT RightHand
					{
						OFFSET -118.922516 0.000000 0.000000
						CHANNELS 6 Xposition Yposition Zposition Zrotation Xrotation Yrotation
						End Site
						{
							OFFSET -68.113342 0.000000 0.000000
						}
					}
				}
			}
		}
	}
	JOINT LeftUpLeg
	{
		OFFSET 45.409000 0.000000 0.000000
		CHANNELS 6 Xposition Yposition Zposition Zrotation Xrotation Yrotation
		JOINT LeftLeg
		{
			OFFSET 0.000000 0.000031 -190.974503
			CHANNELS 6 Xposition Yposition Zposition Zrotation Xrotation Yrotation
			JOINT LeftFoot
			{
				OFFSET 0.000000 0.000033 -200.215012
				CHANNELS 6 Xposition Yposition Zposition Zrotation Xrotation Yrotation
				JOINT LeftToeBase
				{
					OFFSET 0.000000 -68.113487 -29.515839
					CHANNELS 6 Xposition Yposition Zposition Zrotation Xrotation Yrotation
					End Site
					{
						OFFSET 0.000000 -18.163559 0.000000
					}
				}
			}
		}
	}
	JOINT RightUpLeg
	{
		OFFSET -45.409000 0.000000 0.000000
		CHANNELS 6 Xposition Yposition Zposition Zrotation Xrotation Yrotation
		JOINT RightLeg
		{
			OFFSET 0.000000 0.000031 -190.974503
			CHANNELS 6 Xposition Yposition Zposition Zrotation Xrotation Yrotation
			JOINT RightFoot
			{
				OFFSET 0.000000 0.000033 -200.215012
				CHANNELS 6 Xposition Yposition Zposition Zrotation Xrotation Yrotation
				JOINT RightToeBase
				{
					OFFSET 0.000000 -68.113487 -29.515839
					CHANNELS 6 Xposition Yposition Zposition Zrotation Xrotation Yrotation
					End Site
					{
						OFFSET 0.000000 -18.163559 0.000000
					}
				}
			}
		}
	}
}
MOTION
Frames: 4
Frame Time: 0.041667
-16.840286 -9.301911 373.198090 0.502195 17.795233 -2.356183 -0.000002 -0.000010 138.847366 -4.259461 -19.793943 -8.684623 0.000007 -0.000019 110.694038 1.279993 13.486032 2.484063 0.000007 -9.081803 70.383965 1.746993 5.288080 5.717462 18.288343 2.400610 89.379425 0.709400 -8.164541 -18.298715 65.258018 -0.000017 -0.000048 -11.761395 -10.682604 4.206974 127.960526 0.000008 0.000057 2.127314 -4.450335 3.169331 118.922447 -0.000024 0.000044 18.336843 -4.875009 -2.275564 -18.036051 2.400609 89.379509 -4.643704 -1.094710 14.447187 -65.258003 -0.000001 0.000010 24.566792 18.839458 -26.725866 -127.960472 -0.000034 -0.000004 78.051529 38.184412 37.816835 -118.922508 0.000034 -0.000016 -6.521731 6.805897 32.010416 45.409000 0.000015 0.000042 17.241631 -38.298028 -14.330195 0.000005 0.000038 -190.974503 15.033426 33.966876 3.548426 0.000011 0.000034 -200.215027 17.442705 3.343606 6.407318 -0.000002 -68.113472 -29.515839 -0.000002 -0.000001 0.000000 -45.409000 0.000003 0.000010 13.169676 -25.665047 36.713650 0.000013 0.000039 -190.974518 -20.552615 30.775480 -15.453885 0.000006 0.000032 -200.214981 -26.684839 -4.183696 -12.193745 0.000002 -68.113518 -29.515841 0.000001 0.000002 0.000001 
-16.834230 -9.403901 373.228363 0.546358 17.759108 -2.341672 0.000002 0.000013 138.847305 -4.299317 -19.766363 -8.697357 0.000007 -0.000023 110.694008 1.289220 13.483829 2.488178 0.000009 -9.081820 70.383980 1.754756 5.351416 5.735391 18.288355 2.400606 89.379471 0.695265 -8.173363 -18.304729 65.257996 -0.000012 0.000111 -11.774244 -10.733469 4.239620 127.960495 -0.000005 -0.000022 2.152660 -4.429736 3.175802 118.922455 -0.000011 -0.000008 18.327016 -4.853876 -2.268269 -18.036034 2.400600 89.379517 -4.651824 -1.085284 14.452344 -65.258026 -0.000010 0.000055 24.568119 18.785764 -26.754713 -127.960449 -0.000009 -0.000023 78.115869 38.170188 37.730365 -118.922508 -0.000020 -0.000020 -6.495080 6.836989 32.065604 45.409004 0.000021 -0.000040 17.182886 -38.258072 -14.371850 0.000001 0.000040 -190.974518 15.029941 33.946238 3.550078 0.000004 0.000035 -200.214966 17.431244 3.352624 6.411147 0.000004 -68.113480 -29.515869 -0.000001 -0.000000 0.000001 -45.409004 0.000024 -0.000055 13.117574 -25.592422 36.663919 -0.000010 0.000024 -190.974564 -20.539832 30.737340 -15.459467 0.000009 0.000036 -200.214996 -26.710478 -4.178806 -12.214225 0.000021 -68.113480 -29.515837 -0.000003 -0.000002 -0.000000 
-16.821650 -9.443398 373.251831 0.554842 17.756926 -2.332938 0.000002 -0.000002 138.847382 -4.296799 -19.772505 -8.688684 0.000001 -0.000019 110.694069 1.295009 13.476131 2.462930 -0.000001 -9.081800 70.384026 1.762847 5.421102 5.800602 18.288345 2.400605 89.379471 0.682098 -8.177818 -18.319563 65.257980 -0.000025 -0.000017 -11.789250 -10.764889 4.278381 127.960518 -0.000027 -0.000013 2.173713 -4.398390 3.167426 118.922546 0.000026 0.000009 18.326026 -4.823091 -2.269132 -18.036066 2.400605 89.379532 -4.651357 -1.090219 14.438924 -65.258003 -0.000003 -0.000001 24.569029 18.752045 -26.785017 -127.960472 -0.000015 0.000070 78.149290 38.183903 37.676017 -118.922539 0.000029 0.000037 -6.458264 6.900354 32.013223 45.409000 0.000015 0.000019 17.261575 -38.273692 -14.324674 -0.000003 0.000028 -190.974472 14.970574 33.948523 3.537956 0.000008 0.000009 -200.214981 17.417879 3.355386 6.413151 0.000002 -68.113480 -29.515837 0.000000 -0.000001 -0.000001 -45.408997 0.000014 0.000023 13.108485 -25.586683 36.643046 0.000017 0.000031 -190.974503 -20.519135 30.732737 -15.448136 -0.000021 0.000036 -200.215027 -26.717689 -4.175366 -12.256879 0.000000 -68.113495 -29.515837 -0.000002 -0.000001 0.000000 
-16.806099 -9.485263 373.277832 0.570570 17.757363 -2.330684 0.000004 -0.000029 138.847382 -4.304609 -19.773799 -8.694885 -0.000004 -0.000035 110.694054 1.309702 13.463047 2.484872 -0.000003 -9.081779 70.383957 1.775380 5.482861 5.813825 18.288334 2.400591 89.379433 0.645627 -8.179781 -18.311184 65.258003 -0.000004 0.000090 -11.784511 -10.833859 4.297924 127.960510 0.000020 -0.000016 2.200528 -4.369452 3.189767 118.922478 0.000015 0.000068 18.306212 -4.798187 -2.289339 -18.036047 2.400591 89.379486 -4.663535 -1.091913 14.451372 -65.258011 -0.000007 0.000077 24.521603 18.654538 -26.787888 -127.960472 -0.000010 0.000118 78.296446 38.171441 37.495587 -118.922600 0.000021 0.000093 -6.462147 6.969209 32.029148 45.409000 0.000008 0.000025 17.247052 -38.268307 -14.325987 -0.000010 0.000045 -190.974564 14.969096 33.943001 3.536967 0.000000 0.000026 -200.214996 17.417824 3.359367 6.367405 0.000004 -68.113510 -29.515841 -0.000000 0.000001 -0.000000 -45.408997 -0.000001 0.000017 13.098156 -25.574491 36.628617 -0.000014 0.000039 -190.974548 -20.544466 30.723530 -15.429218 -0.000010 0.000032 -200.214981 -26.723438 -4.162076 -12.246324 0.000004 -68.113480 -29.515839 -0.000002 -0.000000 0.000000 
